<?xml version="1.0" encoding="utf-8"?><svg xmlns:xlink="http://www.w3.org/1999/xlink" id="Scene_1" image-rendering="auto" baseProfile="basic" version="1.1" x="0px" y="0px" width="151" height="32" viewBox="0 0 151 32" xmlns="http://www.w3.org/2000/svg"><g id="Scene 1_2.0"><path fill="#FFF" d="M144.3,22.95L144.95,22.95 144.95,25 145.5,25 145.5,22.95 146.15,22.95 146.15,22.5 144.3,22.5 144.3,22.95"/><path fill="#FFF" d="M148.85,22.5L148.15,22.5 147.65,24.2 147.2,22.5 146.45,22.5 146.3,25 146.85,25 146.9,23 147.4,24.95 147.8,24.95 148.4,23 148.45,25 149,25 148.85,22.5"/><path fill="#FFF" d="M128.25,23.8Q127.9,24.05 127.7,24.35L127.65,23.65 126.95,23.65Q127,24 127,24.8L127,27.95 127.75,27.95 127.75,25.35 127.8,25Q127.9,24.65 128.2,24.45 128.5,24.2 128.9,24.2 129.85,24.2 129.85,25.5L129.85,27.95 130.65,27.95 130.65,25.4Q130.65,24.4 130.1,23.9 129.7,23.55 129.15,23.55 128.65,23.55 128.25,23.8"/><path fill="#FFF" d="M143.85,27.1Q143.7,26.95 143.45,26.95 143.25,26.95 143.1,27.1 142.95,27.25 142.95,27.5 142.95,27.75 143.1,27.9 143.25,28.05 143.45,28.05 143.7,28.05 143.85,27.9 144,27.75 144,27.5 144,27.25 143.85,27.1"/><path fill="#FFF" d="M115.85,9.3Q115.9,10.4 115.9,12.15L115.9,18.5 117.55,18.5 117.55,13.6Q117.55,13.15 117.65,12.8 117.8,11.85 118.4,11.25 119,10.65 119.9,10.65L120.45,10.7 120.45,9.15 120,9.1Q119.15,9.1 118.45,9.65 117.75,10.2 117.45,11.1L117.4,11.1 117.3,9.3 115.85,9.3"/><path fill="#FFF" d="M101.45,10.3Q102.4,10.3 103.35,10.85L103.75,9.65Q102.85,9.1 101.5,9.1 100.05,9.1 99.15,9.85 98.3,10.65 98.3,11.8 98.3,13.5 100.75,14.4 101.7,14.75 102.05,15.1 102.45,15.5 102.45,16.1 102.45,16.7 102.05,17.05 101.55,17.45 100.7,17.45 99.55,17.45 98.45,16.8L98.05,18.1Q99.15,18.7 100.65,18.7 102.25,18.7 103.15,17.95 104.1,17.2 104.1,15.95 104.1,14.9 103.45,14.25 102.9,13.6 101.65,13.15 100.7,12.8 100.35,12.5 99.95,12.15 99.95,11.6 99.95,11.05 100.3,10.7 100.75,10.3 101.45,10.3"/><path fill="#FFF" d="M105.2,22.65L104.45,22.85 104.45,23.65 103.8,23.65 103.8,24.25 104.45,24.25 104.45,26.6Q104.45,27.4 104.75,27.75 105.05,28.05 105.6,28.05 106.05,28.05 106.3,27.95L106.25,27.35Q106.05,27.4 105.8,27.4 105.2,27.4 105.2,26.55L105.2,24.25 106.35,24.25 106.35,23.65 105.2,23.65 105.2,22.65"/><path fill="#FFF" d="M103.05,23.65L102.25,23.65 102.25,26.3Q102.25,26.55 102.2,26.7 101.9,27.4 101.15,27.4 100.2,27.4 100.2,26.05L100.2,23.65 99.45,23.65 99.45,26.15Q99.45,27.2 99.9,27.65 100.3,28.05 100.9,28.05 101.9,28.05 102.35,27.25L102.4,27.95 103.1,27.95 103.05,23.65"/><path fill="#FFF" d="M108.35,24.45Q108.65,24.2 109,24.2 110,24.2 110,25.5L110,27.95 110.8,27.95 110.8,25.4Q110.8,24.4 110.25,23.9 109.85,23.55 109.3,23.55 108.85,23.55 108.5,23.75 108.15,23.95 107.95,24.3L107.9,24.3 107.9,21.65 107.15,21.65 107.15,27.95 107.9,27.95 107.9,25.35Q107.9,25.1 108,25 108.1,24.65 108.35,24.45"/><path fill="#FFF" d="M114.4,23.65L114.4,24.25 115.05,24.25 115.05,26.6Q115.05,27.35 115.35,27.75 115.7,28.05 116.2,28.05 116.65,28.05 116.9,27.95L116.85,27.35Q116.7,27.4 116.45,27.4 115.85,27.4 115.85,26.55L115.85,24.25 116.95,24.25 116.95,23.65 115.85,23.65 115.85,22.65 115.05,22.85 115.05,23.65 114.4,23.65"/><path fill="#FFF" d="M120.9,23.9Q120.5,23.55 119.9,23.55 119.5,23.55 119.1,23.75 118.8,23.95 118.55,24.3L118.55,21.65 117.75,21.65 117.75,27.95 118.55,27.95 118.55,25.35Q118.55,25.1 118.6,25 118.9,24.2 119.65,24.2 120.65,24.2 120.65,25.5L120.65,27.95 121.4,27.95 121.4,25.4Q121.4,24.4 120.9,23.9"/><path fill="#FFF" d="M95.45,5.45Q95,5.45 94.7,5.75 94.4,6.05 94.4,6.5 94.4,6.95 94.65,7.3 94.95,7.6 95.45,7.6 95.95,7.6 96.25,7.3 96.55,6.95 96.55,6.5 96.55,6.05 96.25,5.75 95.95,5.45 95.45,5.45"/><path fill="#FFF" d="M93.45,9.3L91.7,9.3 89.9,14.45Q89.3,16.2 89.1,16.85L89.05,16.85Q88.8,15.8 88.3,14.45L86.5,9.3 84.7,9.3 88.25,18.5 89.85,18.5 93.45,9.3"/><path fill="#FFF" d="M96.3,9.3L94.6,9.3 94.6,18.5 96.3,18.5 96.3,9.3"/><path fill="#FFF" d="M81.95,24.25L81.95,23.65 80.8,23.65 80.8,22.65 80.05,22.85 80.05,23.65 79.4,23.65 79.4,24.25 80.05,24.25 80.05,26.6Q80.05,27.4 80.35,27.75 80.65,28.05 81.2,28.05 81.65,28.05 81.9,27.95L81.85,27.35Q81.7,27.4 81.4,27.4 80.8,27.4 80.8,26.55L80.8,24.25 81.95,24.25"/><path fill="#FFF" d="M84.1,23.75Q83.8,23.95 83.55,24.3L83.55,21.65 82.75,21.65 82.75,27.95 83.55,27.95 83.55,25.35Q83.55,25.1 83.6,25 83.7,24.65 83.95,24.45 84.25,24.2 84.65,24.2 85.6,24.2 85.6,25.5L85.6,27.95 86.4,27.95 86.4,25.4Q86.4,24.4 85.9,23.9 85.5,23.55 84.9,23.55 84.5,23.55 84.1,23.75"/><path fill="#FFF" d="M93.3,23.65L93.3,24.25 93.95,24.25 93.95,26.6Q93.95,27.35 94.25,27.75 94.6,28.05 95.1,28.05 95.55,28.05 95.8,27.95L95.75,27.35Q95.55,27.4 95.3,27.4 94.75,27.4 94.75,26.55L94.75,24.25 95.85,24.25 95.85,23.65 94.75,23.65 94.75,22.65 93.95,22.85 93.95,23.65 93.3,23.65"/><path fill="#FFF" d="M97.85,23.8Q97.5,24.05 97.35,24.5L97.3,23.65 96.6,23.65Q96.65,24.05 96.65,25L96.65,27.95 97.4,27.95 97.4,25.65 97.45,25.3Q97.55,24.85 97.8,24.6 98.1,24.3 98.5,24.3L98.75,24.3 98.75,23.6 98.55,23.55Q98.15,23.55 97.85,23.8"/><path fill="#FFF" d="M111.95,27.1Q111.8,27.25 111.8,27.5 111.8,27.75 111.95,27.9 112.1,28.05 112.3,28.05 112.55,28.05 112.7,27.9 112.85,27.75 112.85,27.5 112.85,27.25 112.7,27.1 112.55,26.95 112.35,26.95 112.1,26.95 111.95,27.1"/><path fill="#FFF" d="M74.7,24.25L75.4,24.25 75.4,26.6Q75.4,27.35 75.7,27.75 76,28.05 76.55,28.05 77,28.05 77.25,27.95L77.2,27.35Q77.05,27.4 76.75,27.4 76.15,27.4 76.15,26.55L76.15,24.25 77.3,24.25 77.3,23.65 76.15,23.65 76.15,22.65 75.4,22.85 75.4,23.65 74.7,23.65 74.7,24.25"/><path fill="#FFF" d="M53.1,5.45Q52.6,5.45 52.3,5.75 52,6.05 52,6.5 52,6.95 52.3,7.3 52.6,7.6 53.05,7.6 53.55,7.6 53.85,7.3 54.15,6.95 54.15,6.5 54.15,6.05 53.85,5.75 53.55,5.45 53.1,5.45"/><path fill="#FFF" d="M53.95,9.3L52.25,9.3 52.25,18.5 53.95,18.5 53.95,9.3"/><path fill="#FFF" d="M50.9,10.7L50.9,9.15 50.45,9.1Q49.6,9.1 48.9,9.65 48.2,10.2 47.9,11.1L47.85,11.1 47.75,9.3 46.3,9.3Q46.35,10.4 46.35,12.15L46.35,18.5 48,18.5 48,13.6Q48,13.15 48.1,12.8 48.25,11.85 48.85,11.25 49.45,10.65 50.35,10.65L50.9,10.7"/><path fill="#FFF" d="M44.85,10.55L44.85,9.3 42.45,9.3 42.45,7.05 40.85,7.6 40.85,9.3 39.4,9.3 39.4,10.55 40.85,10.55 40.85,15.6Q40.85,17.3 41.45,18 42.1,18.7 43.3,18.7 44.2,18.7 44.75,18.5L44.7,17.2Q44.35,17.35 43.75,17.35 43.05,17.35 42.75,16.85 42.45,16.45 42.45,15.55L42.45,10.55 44.85,10.55"/><path fill="#FFF" d="M9.55,12.45Q9.15,12.85 9.15,13.45 9.15,14.05 9.55,14.45 9.95,14.85 10.55,14.85 11.15,14.85 11.55,14.45 11.95,14.05 11.95,13.45 11.95,12.85 11.55,12.45 11.15,12.05 10.55,12.05 9.95,12.05 9.55,12.45"/><path fill="#FFF" d="M12.5,11.35L12.5,9.775Q11.613,9.3 10.55,9.3 8.85,9.3 7.65,10.5 6.4,11.75 6.4,13.45 6.4,15.15 7.65,16.4 8.85,17.6 10.55,17.6 11.613,17.6 12.5,17.125L12.5,15.55Q11.68,16.3 10.55,16.3 9.35,16.3 8.5,15.45 7.65,14.65 7.65,13.45 7.65,12.25 8.5,11.4 9.4,10.6 10.55,10.6 11.68,10.6 12.5,11.35"/><path fill="#FFF" d="M9.2,4.025Q8.28,4.614 7.95,5.2L2.05,5.2Q3,6.1 3.65,8.3 1.95,10.55 1.95,13.45 1.95,17 4.45,19.55 6.577,21.72 9.5,22.05L9.5,20.325Q7.277,20.018 5.65,18.35 3.65,16.3 3.65,13.45 3.65,10.6 5.65,8.55 7.166,6.996 9.2,6.625L9.2,4.025"/><path fill="#FFF" d="M28.45,14.45Q28.85,14.05 28.85,13.45 28.85,12.85 28.45,12.45 28.05,12.05 27.45,12.05 26.85,12.05 26.45,12.45 26.05,12.85 26.05,13.45 26.05,14.05 26.45,14.45 26.85,14.85 27.45,14.85 28.05,14.85 28.45,14.45"/><path fill="#FFF" d="M25.7,9.675L25.7,11.15Q26.488,10.6 27.45,10.6 28.65,10.6 29.5,11.45 30.35,12.25 30.35,13.45 30.35,14.65 29.5,15.45 28.65,16.3 27.45,16.3 26.454,16.3 25.7,15.725L25.7,17.225Q26.505,17.6 27.45,17.6 29.15,17.6 30.4,16.4 31.6,15.15 31.6,13.45 31.6,11.75 30.4,10.5 29.15,9.3 27.45,9.3 26.505,9.3 25.7,9.675"/><path fill="#FFF" d="M34.15,8Q34.75,6.1 35.65,5.2L30,5.2 29.7,5.1Q29.4,4.625 28.8,4.2L28.8,6.625Q30.834,6.996 32.35,8.55 34.4,10.6 34.4,13.45 34.4,16.3 32.35,18.35 30.723,20.018 28.5,20.325L28.5,22.05Q31.385,21.715 33.55,19.55 36.1,17 36.1,13.45 36.1,10.4 34.15,8"/><path fill="#FFF" d="M63.95,10.35Q62.818,9.119 61.2,9.1L61.2,10.45Q62.073,10.642 62.65,11.45 63.35,12.4 63.35,13.85 63.35,15.45 62.65,16.45 62.061,17.15 61.2,17.325L61.2,18.7Q62.717,18.578 63.75,17.5 65.05,16.1 65.05,13.75 65.05,11.7 63.95,10.35"/><path fill="#FFF" d="M66.7,9.9L67.05,11Q68.1,10.3 69.45,10.3 71.55,10.3 71.55,12.45L71.55,12.65Q70.16,12.624 69.1,12.85L69.1,14.1Q70.037,13.76 71.6,13.8L71.6,15.4Q71.6,15.7 71.55,15.95 71.3,16.6 70.75,17 70.15,17.5 69.25,17.5 69.173,17.5 69.1,17.5L69.1,18.7Q69.9,18.647 70.55,18.3 71.25,17.95 71.65,17.35L71.75,17.35 71.9,18.5 73.4,18.5Q73.25,17.75 73.25,16.3L73.25,12.85Q73.25,11.2 72.55,10.25 71.65,9.1 69.7,9.1 67.95,9.1 66.7,9.9"/><path fill="#FFF" d="M67.4,24.175Q67.542,24.15 67.7,24.15 68.55,24.15 68.8,25L68.85,25.35 68.85,26.1Q68.85,26.35 68.8,26.55 68.5,27.35 67.7,27.35 67.541,27.35 67.4,27.325L67.4,27.95Q67.449,27.95 67.5,27.95 68.4,27.95 68.85,27.2L68.85,27.7Q68.85,29.2 67.5,29.2 66.75,29.2 66.2,28.85L66,29.45Q66.5,29.8 67.45,29.8 68.45,29.8 69.05,29.3 69.65,28.75 69.65,27.35L69.65,23.65 69,23.65 68.95,24.3 68.9,24.3Q68.5,23.55 67.6,23.55 67.498,23.55 67.4,23.55L67.4,24.175"/><path fill="#FFF" d="M72.3,24.125L72.3,23.575Q71.571,23.643 71.1,24.2 70.55,24.85 70.55,25.85 70.55,26.85 71.1,27.45 71.65,28.05 72.65,28.05 73.5,28.05 74.1,27.75L73.95,27.2Q73.4,27.45 72.75,27.45 72.1,27.45 71.75,27.1 71.3,26.7 71.3,25.95L72.3,25.95 72.3,25.4 71.3,25.4Q71.35,24.9 71.6,24.55 71.884,24.185 72.3,24.125"/><path fill="#FFF" d="M81.85,4.95L81.85,10.5 81.8,10.5Q81.45,9.9 80.8,9.5 80,9.1 79,9.1 78.796,9.1 78.6,9.125L78.6,10.5Q78.949,10.4 79.35,10.4 80.25,10.4 80.9,10.95 81.55,11.5 81.75,12.3 81.85,12.65 81.85,13.05L81.85,14.65Q81.85,15.05 81.75,15.35 81.55,16.3 80.85,16.85 80.15,17.35 79.3,17.35 78.927,17.35 78.6,17.275L78.6,18.7Q78.724,18.7 78.85,18.7 79.9,18.7 80.8,18.2 81.55,17.7 81.95,16.9L82,16.9 82.05,18.5 83.55,18.5Q83.5,17.6 83.5,16.15L83.5,4.95 81.85,4.95"/><path fill="#FFF" d="M88.85,24.175L88.85,23.6Q88.255,23.721 87.85,24.2 87.3,24.85 87.3,25.85 87.3,26.85 87.85,27.45 88.45,28.05 89.4,28.05 90.25,28.05 90.85,27.75L90.7,27.2Q90.15,27.45 89.5,27.45 88.9,27.45 88.5,27.1 88.05,26.7 88.05,25.95L88.85,25.95 88.85,25.4 88.05,25.4Q88.1,24.9 88.4,24.55 88.58,24.28 88.85,24.175"/><path fill="#FFF" d="M109.4,9.1L109.4,10.35Q109.522,10.35 109.65,10.35 111.05,10.35 111.8,11.5 112.45,12.5 112.45,13.85 112.45,15.45 111.65,16.45 110.85,17.45 109.65,17.45 109.522,17.45 109.4,17.45L109.4,18.7Q109.499,18.7 109.6,18.7 111.45,18.7 112.7,17.55 114.2,16.2 114.2,13.8 114.2,11.7 112.95,10.4 111.75,9.1 109.75,9.1 109.572,9.1 109.4,9.1"/><path fill="#FFF" d="M123.7,9.1Q123.629,9.1 123.55,9.1L123.55,9.45 123.6,9.45Q123.654,9.45 123.7,9.45 123.95,9.496 123.95,9.75 123.95,9.933 123.75,9.975 123.694,10 123.6,10L123.55,10 123.55,10.35Q123.8,10.35 123.85,10.65 123.95,11.05 124,11.1L124.45,11.1 124.3,10.55Q124.2,10.3 124.05,10.2 124.35,10.05 124.35,9.7 124.35,9.45 124.2,9.25 124.035,9.126 123.7,9.1"/><path fill="#FFF" d="M124.9,8.625L124.9,9.2Q125.25,9.627 125.25,10.2 125.25,10.773 124.9,11.2L124.9,11.775Q125.003,11.689 125.1,11.6 125.65,11 125.65,10.2 125.65,9.4 125.1,8.8 125.003,8.711 124.9,8.625"/><path fill="#FFF" d="M124.2,24.1L124.2,23.55Q123.369,23.587 122.85,24.2 122.3,24.85 122.3,25.85 122.3,26.85 122.85,27.45 123.45,28.05 124.45,28.05 125.3,28.05 125.85,27.75L125.7,27.2Q125.15,27.45 124.55,27.45 123.9,27.45 123.5,27.1 123.05,26.7 123.05,25.95L124.2,25.95 124.2,25.4 123.05,25.4Q123.15,24.9 123.4,24.55 123.732,24.123 124.2,24.1"/><path fill="#FFF" d="M136.65,23.65L136.65,24.3 136.6,24.3Q136.2,23.55 135.3,23.55 135.145,23.55 135,23.575L135,24.225Q135.185,24.15 135.4,24.15 135.8,24.15 136.1,24.4 136.4,24.65 136.5,25 136.55,25.1 136.55,25.35L136.55,26.1Q136.55,26.4 136.5,26.55 136.35,26.9 136.05,27.15 135.75,27.35 135.4,27.35 135.184,27.35 135,27.3L135,27.95Q135.074,27.95 135.15,27.95 136.1,27.95 136.55,27.2L136.55,27.7Q136.55,29.2 135.15,29.2 134.45,29.2 133.9,28.85L133.7,29.45Q134.25,29.8 135.15,29.8 136.15,29.8 136.7,29.3 137.3,28.75 137.3,27.35L137.35,23.65 136.65,23.65"/><path fill="#FFF" d="M140.5,23.55L140.5,24.15Q140.995,24.221 141.3,24.7 141.6,25.15 141.6,25.8 141.6,26.5 141.25,27 140.949,27.43 140.5,27.5L140.5,28.05Q141.222,27.984 141.75,27.5 142.4,26.9 142.4,25.75 142.4,24.75 141.85,24.2 141.344,23.602 140.5,23.55"/></g><g id="Scene 1_1.0"><path fill="#FFF" d="M28.8,4.2Q28.2,3.75 27.3,3.35 24.2,1.9 18.85,1.9 13.1,1.9 9.95,3.6 9.536,3.814 9.2,4.025L9.2,6.625Q9.849,6.5 10.55,6.5 13.4,6.5 15.45,8.55 17.45,10.6 17.45,13.45 17.45,16.3 15.45,18.35 13.4,20.4 10.55,20.4 10.009,20.4 9.5,20.325L9.5,22.05Q10.013,22.1 10.55,22.1 12.5,22.1 14.25,21.25 15.95,20.45 17.15,19L19.1,21.75 20.8,18.9Q22,20.4 23.7,21.2 25.5,22.1 27.45,22.1 27.987,22.1 28.5,22.05L28.5,20.325Q27.991,20.4 27.45,20.4 24.6,20.4 22.55,18.35 20.5,16.3 20.5,13.45 20.5,10.6 22.55,8.55 24.6,6.5 27.45,6.5 28.151,6.5 28.8,6.625L28.8,4.2 M27.5,5.4Q25.95,5.1 24.1,5.8 20.4,7.25 19.1,12.1 17.75,7.25 14.1,5.8 12.9,5.4 11.65,5.35L10.65,5.4 12.5,4.15Q15.1,2.9 18.8,2.9L19.4,2.9Q23.05,2.9 25.65,4.15 26.95,4.75 27.5,5.4"/><path fill="#FFF" d="M25.4,11.4Q25.547,11.27 25.7,11.15L25.7,9.675Q25.055,9.967 24.5,10.5 23.3,11.75 23.3,13.45 23.3,15.2 24.5,16.4 25.055,16.933 25.7,17.225L25.7,15.725Q25.545,15.595 25.4,15.45 24.6,14.65 24.6,13.45 24.6,12.3 25.4,11.4"/><path fill="#FFF" d="M12.5,9.775L12.5,11.35Q12.551,11.401 12.6,11.45 13.45,12.25 13.45,13.45 13.45,14.65 12.6,15.45 12.551,15.499 12.5,15.55L12.5,17.125Q13.032,16.85 13.5,16.4 14.7,15.15 14.7,13.45 14.7,11.75 13.5,10.5 13.032,10.05 12.5,9.775"/></g><g id="Scene 1_0.0"><path fill="#FFF" d="M124.8,9.1Q124.853,9.153 124.9,9.2L124.9,8.625Q124.37,8.25 123.7,8.25 122.9,8.25 122.3,8.8 121.75,9.4 121.75,10.2 121.75,11 122.3,11.6 122.9,12.15 123.7,12.15 124.37,12.15 124.9,11.775L124.9,11.2Q124.853,11.247 124.8,11.3 124.3,11.75 123.7,11.75 123.05,11.75 122.6,11.3 122.15,10.85 122.15,10.2 122.15,9.55 122.6,9.1 122.994,8.706 123.55,8.65 123.619,8.65 123.7,8.65 124.3,8.65 124.8,9.1"/><path fill="#FFF" d="M123.55,9.1L123,9.15 123,11.1 123.4,11.1 123.4,10.35 123.55,10.35 123.55,10 123.4,10 123.4,9.45 123.55,9.45 123.55,9.1"/><path fill="#FFF" d="M61.2,10.45Q61.617,9.775 61.2,9.1L61.15,9.1Q58.95,9.1 57.85,10.85L57.75,9.3 56.25,9.3Q56.3,10.15 56.3,12.3L56.3,22.3 58,22.3 58,17.25Q58.95,18.7 60.85,18.7 61.028,18.7 61.2,18.7 61.497,17.913 61.2,17.325 60.892,17.4 60.55,17.4 59.65,17.4 58.95,16.85 58.3,16.3 58.05,15.45 58,15.15 58,14.75L58,13.15Q58,12.95 58.1,12.45 58.3,11.55 59.05,10.95 59.75,10.4 60.65,10.4 60.938,10.4 61.2,10.45"/><path fill="#FFF" d="M69.1,14.1Q69.53,13.561 69.1,12.85 68.139,13.072 67.45,13.5 66,14.4 66,16.05 66,17.15 66.75,17.9 67.5,18.7 68.85,18.7 68.977,18.7 69.1,18.7 69.579,18.1 69.1,17.5 68.553,17.453 68.2,17.1 67.7,16.65 67.7,15.9 67.7,14.582 69.1,14.1"/><path fill="#FFF" d="M67.4,24.175Q67.67,23.863 67.4,23.55 66.73,23.627 66.25,24.15 65.65,24.8 65.65,25.85 65.65,26.75 66.15,27.35 66.665,27.912 67.4,27.95 67.658,27.81 67.4,27.325 67.007,27.231 66.75,26.9 66.4,26.45 66.4,25.8 66.4,25.05 66.8,24.6 67.049,24.279 67.4,24.175"/><path fill="#FFF" d="M72.3,23.575Q72.027,23.941 72.3,24.125 72.396,24.1 72.5,24.1 73.05,24.1 73.35,24.55 73.6,24.9 73.6,25.4L72.3,25.4Q71.954,25.761 72.3,25.95L74.3,25.95 74.3,25.55Q74.3,24.8 73.95,24.25 73.5,23.55 72.55,23.55 72.421,23.55 72.3,23.575"/><path fill="#FFF" d="M78.6,10.5Q78.982,9.813 78.6,9.125 77.116,9.252 76.1,10.4 74.85,11.8 74.85,14.05 74.85,16.1 76,17.4 77.064,18.603 78.6,18.7 79.052,17.988 78.6,17.275 77.785,17.063 77.25,16.35 76.55,15.4 76.55,13.95 76.55,12.4 77.3,11.4 77.819,10.709 78.6,10.5"/><path fill="#FFF" d="M88.85,23.6Q88.663,23.701 88.85,24.175 89.03,24.1 89.25,24.1 89.85,24.1 90.15,24.55 90.35,24.9 90.3,25.4L88.85,25.4Q88.677,25.761 88.85,25.95L91.05,25.95 91.1,25.55Q91.1,24.8 90.75,24.25 90.25,23.55 89.3,23.55 89.063,23.55 88.85,23.6"/><path fill="#FFF" d="M109.4,10.35Q109.658,9.725 109.4,9.1 107.639,9.211 106.5,10.35 105.15,11.75 105.15,13.95 105.15,16.1 106.45,17.45 107.634,18.634 109.4,18.7 109.694,18.173 109.4,17.45 108.323,17.348 107.65,16.45 106.85,15.45 106.85,13.9 106.85,12.45 107.55,11.45 108.229,10.454 109.4,10.35"/><path fill="#FFF" d="M124.2,23.55Q123.941,23.739 124.2,24.1L124.25,24.1Q124.85,24.1 125.15,24.55 125.35,24.9 125.35,25.4L124.2,25.4Q123.941,25.675 124.2,25.95L126.1,25.95 126.1,25.55Q126.1,24.8 125.75,24.25 125.3,23.55 124.3,23.55 124.249,23.55 124.2,23.55"/><path fill="#FFF" d="M135,24.225Q135.3,23.9 135,23.575 134.394,23.666 133.95,24.15 133.35,24.8 133.35,25.85 133.35,26.75 133.85,27.35 134.344,27.889 135,27.95 135.192,27.625 135,27.3 134.674,27.188 134.45,26.9 134.15,26.45 134.15,25.8 134.15,25.05 134.5,24.6 134.713,24.326 135,24.225"/><path fill="#FFF" d="M140.5,24.15Q140.775,23.85 140.5,23.55 140.426,23.55 140.35,23.55 139.45,23.55 138.85,24.2 138.25,24.8 138.25,25.85 138.25,26.85 138.85,27.45 139.4,28.05 140.3,28.05 140.402,28.05 140.5,28.05 140.787,27.679 140.5,27.5 140.427,27.5 140.35,27.5L140.3,27.5Q139.75,27.5 139.4,27 139,26.5 139,25.8 139,25.15 139.35,24.7 139.7,24.15 140.35,24.15 140.427,24.15 140.5,24.15"/></g><defs/></svg>