<?xml version="1.0" encoding="UTF-8" standalone="no"?>
<svg width="10px" height="10px" viewBox="0 0 10 10" version="1.1" xmlns="http://www.w3.org/2000/svg" xmlns:xlink="http://www.w3.org/1999/xlink">
    <!-- Generator: Sketch 3.7.1 (28215) - http://www.bohemiancoding.com/sketch -->
    <title>Rectangle 20</title>
    <desc>Created with Sketch.</desc>
    <defs></defs>
    <g id="Symbols" stroke="none" stroke-width="1" fill="none" fill-rule="evenodd">
        <g id="Lang-Tab" transform="translate(-191.000000, -8.000000)" fill="#9FBFCB">
            <g id="Group-9">
                <path d="M196.594874,17.0267327 L198.308832,17.0267327 C199.288252,17.0267327 200.086942,16.2317588 200.086942,15.2511088 L200.086942,10.7112674 C200.086942,9.74102861 199.290855,8.93564356 198.308832,8.93564356 L192.865053,8.93564356 C191.885632,8.93564356 191.086942,9.73061744 191.086942,10.7112674 L191.086942,15.2511088 C191.086942,16.2213476 191.883029,17.0267327 192.865053,17.0267327 L194.546805,17.0267327 L195.385259,17.8651862 C195.489241,17.9691682 195.654873,17.9667337 195.758534,17.8630731 L196.594874,17.0267327 Z M197.586942,13.4868812 C197.863085,13.4868812 198.086942,13.2604747 198.086942,12.9811881 C198.086942,12.7019015 197.863085,12.475495 197.586942,12.475495 C197.3108,12.475495 197.086942,12.7019015 197.086942,12.9811881 C197.086942,13.2604747 197.3108,13.4868812 197.586942,13.4868812 Z M195.586942,13.4868812 C195.863085,13.4868812 196.086942,13.2604747 196.086942,12.9811881 C196.086942,12.7019015 195.863085,12.475495 195.586942,12.475495 C195.3108,12.475495 195.086942,12.7019015 195.086942,12.9811881 C195.086942,13.2604747 195.3108,13.4868812 195.586942,13.4868812 Z M193.586942,13.4868812 C193.863085,13.4868812 194.086942,13.2604747 194.086942,12.9811881 C194.086942,12.7019015 193.863085,12.475495 193.586942,12.475495 C193.3108,12.475495 193.086942,12.7019015 193.086942,12.9811881 C193.086942,13.2604747 193.3108,13.4868812 193.586942,13.4868812 Z" id="Rectangle-20"></path>
            </g>
        </g>
    </g>
</svg>