<?xml version="1.0" encoding="UTF-8" standalone="no"?>
<svg width="10px" height="10px" viewBox="0 0 10 10" version="1.1" xmlns="http://www.w3.org/2000/svg" xmlns:xlink="http://www.w3.org/1999/xlink">
    <!-- Generator: Sketch 43.1 (39012) - http://www.bohemiancoding.com/sketch -->
    <title>Fill 121</title>
    <desc>Created with Sketch.</desc>
    <defs></defs>
    <g id="Page-1" stroke="none" stroke-width="1" fill="none" fill-rule="evenodd">
        <g id="My-Hotel--Fact-Sheet" transform="translate(-715.000000, -803.000000)" fill="#89BDC4">
            <g id="Group-10" transform="translate(628.000000, 803.000000)">
                <path d="M88,2 L87,2 L87,9 C87,9.55025 87.45,10 88,10 L95,10 L95,9 L88,9 L88,2 L88,2 Z M96,0 L90,0 C89.45,0 89,0.45 89,1 L89,7 C89,7.55025 89.45,8 90,8 L96,8 C96.55,8 97,7.55025 97,7 L97,1 C97,0.45 96.55,0 96,0 L96,0 Z M90.5,3.5 L95.5,3.5 L95.5,4.5 L90.5,4.5 L90.5,3.5 Z M90.5,5.5 L93.5,5.5 L93.5,6.5 L90.5,6.5 L90.5,5.5 Z M90.5,1.5 L95.5,1.5 L95.5,2.5 L90.5,2.5 L90.5,1.5 Z" id="Fill-121"></path>
            </g>
        </g>
    </g>
</svg>