<svg id="Layer_1" data-name="Layer 1" xmlns="http://www.w3.org/2000/svg" viewBox="0 0 15.23 16.65"><defs><style>.cls-1,.cls-2{fill:#cdd1b1;}.cls-1{stroke:#cdd1b1;stroke-miterlimit:10;stroke-width:0.15px;}</style></defs><title>map-icon</title><path class="cls-1" d="M19.42,5.08a.28.28,0,0,0-.25,0L14.42,6.63,9.67,5H9.49L4.65,6.65a.28.28,0,0,0-.19.27V18.69a.28.28,0,0,0,.28.28h.09l4.75-1.58L14.33,19h.18l4.84-1.61a.28.28,0,0,0,.19-.27V5.31A.29.29,0,0,0,19.42,5.08ZM5,7.12,9.3,5.7V16.88L5,18.3ZM9.86,5.7l4.28,1.43V18.3L9.86,16.88ZM19,16.88,14.7,18.3V7.12L19,5.7Z" transform="translate(-4.39 -2.4)"/><path class="cls-2" d="M16.84,2.4a2.08,2.08,0,0,0-2.13,2C14.71,5.55,16.84,9,16.84,9S19,5.55,19,4.43A2.08,2.08,0,0,0,16.84,2.4Zm0,2.75a.8.8,0,1,1,.8-.8h0A.8.8,0,0,1,16.84,5.15Z" transform="translate(-4.39 -2.4)"/></svg>